<svg class="h-6 text-gray-400" role="img" viewBox="0 0 60 16" xmlns="http://www.w3.org/2000/svg"><title>Netflix</title><path fill="currentColor" d="M8.48.097H5.994L5.981 9.04C4.914 5.744 3.845 3.562 2.774.097H.39v15.834c.804-.115 1.666-.225 2.472-.33l.007-8.653a508.379 508.379 0 0 0 2.897 8.274c.868-.099 1.82-.22 2.688-.308zm9.276 0h-6.88l-.028 14.608c2.301-.21 4.606-.38 6.912-.514l.004-2.447c-1.5.092-2.935.188-4.428.289l.007-3.702 3.361-.02.004-2.458-3.36.042.007-3.336c.792-.009 1.584-.012 2.377-.01h.35c.559 0 1.12 0 1.69-.005zm9.275.012H19.37l-.003 2.433.33-.001.998.006.997.007h.257l-.016 11.435c.81-.03 1.678-.055 2.489-.076l.01-11.371 2.599-.008zm8.52-.012h-6.908c0 4.584-.002 9.166-.003 13.75.821-.004 1.642-.002 2.463.004L31.1 8.186c.462.002.924.001 1.386-.002l.983-.002c.337 0 .67.001.995.006l-.001-2.432-.94-.005-1.026.004-1.016.002H31.1V2.55h2.446c.667 0 1.334 0 2.009.004zm1.613.012c.006 4.627-.015 9.254-.01 13.881 2.21.083 4.53.172 6.736.324l-.004-2.446c-1.397-.083-2.85-.181-4.247-.24l.009-11.52h-2.484M45.93.11l.028 14.356c.809.062 1.646.13 2.454.202.004-4.85.01-9.706.001-14.558zm4.613 0c.993 2.42 1.901 4.847 2.91 7.416a537.468 537.468 0 0 1-3.163 7.287c.868.086 1.765.21 2.633.308.621-1.525 1.186-2.698 1.809-4.265.622 1.668 1.186 2.957 1.806 4.679.865.112 1.987.273 2.851.396a438.85 438.85 0 0 0-3.247-8.363c1.05-2.486 2.12-4.858 3.21-7.457H56.64c-.673 1.606-1.136 2.638-1.78 4.167-.6-1.591-1.004-2.62-1.605-4.168z"></path></svg>