<svg class="h-6 text-gray-400" role="img" viewBox="0 0 76 16" xmlns="http://www.w3.org/2000/svg"><title>Meta</title><path d="m50.943 15.68c-1.0877 0-2.0437-0.2407-2.868-0.7221-0.8169-0.4736-1.4846-1.1666-1.9275-2.0005-0.4608-0.8519-0.6912-1.8286-0.6911-2.9302 0-1.1153 0.2251-2.1024 0.6754-2.9616 0.4503-0.85886 1.0756-1.5308 1.8758-2.0158 0.8-0.48481 1.7196-0.72726 2.7588-0.72738 1.0322 0 1.9206 0.24416 2.6652 0.73248 0.7448 0.48838 1.318 1.1724 1.7198 2.0522 0.4018 0.87996 0.6027 1.9122 0.6029 3.0966v0.6444h-7.9702c0.1454 0.8867 0.5039 1.5847 1.0754 2.0938 0.5716 0.5092 1.2938 0.7637 2.1667 0.7636 0.6996 0 1.3023-0.1038 1.808-0.3116 0.5056-0.2079 0.9801-0.5231 1.4236-0.9456l1.2471 1.5275c-1.2402 1.1362-2.7609 1.7042-4.5619 1.7042zm1.7146-8.6301c-0.4919-0.50215-1.1362-0.75323-1.9327-0.75323-0.776 0-1.4255 0.2563-1.9484 0.76888-0.5233 0.51271-0.8541 1.202-0.9924 2.0678h5.7152c-0.0694-0.88661-0.3499-1.5811-0.8416-2.0835h-1e-4z" fill="currentColor"></path><path d="m58.601 6.505h-2.1614v-1.9226h2.1614v-3.1796h2.2655v3.1796h3.2836v1.9226h-3.2836v4.8736c0 0.8104 0.1385 1.3887 0.4155 1.7351 0.2771 0.3466 0.7517 0.5199 1.4237 0.5196 0.2533 0.0023 0.5065-0.0098 0.7585-0.0362 0.2078-0.0243 0.4365-0.0573 0.6858-0.0988v1.9016c-0.2845 0.0823-0.5745 0.1448-0.8677 0.1871-0.3354 0.0493-0.6741 0.0736-1.0131 0.0726-2.4455 0-3.6682-1.3369-3.6682-4.0109v-5.1437z" fill="currentColor"></path><path d="m75.955 15.42h-2.2238v-1.517c-0.3835 0.5581-0.9017 1.0102-1.5066 1.3144-0.6097 0.3081-1.3024 0.4622-2.0782 0.4624-0.956 0-1.8029-0.2442-2.5407-0.7327-0.738-0.4882-1.3181-1.1601-1.7406-2.0157-0.4225-0.8557-0.6338-1.8342-0.6338-2.9358 0-1.1081 0.2147-2.0883 0.6442-2.9406 0.4295-0.85207 1.0236-1.5205 1.7822-2.0054 0.7583-0.48481 1.6294-0.72726 2.6132-0.72738 0.7413 0 1.4064 0.14369 1.9953 0.43105 0.5809 0.28112 1.0839 0.70038 1.465 1.221v-1.3925h2.2238v10.838zm-2.2653-7.0453c-0.2426-0.61646-0.6253-1.1031-1.1482-1.46-0.5231-0.35655-1.1276-0.53494-1.8134-0.53516-0.9699 0-1.7423 0.32559-2.3172 0.97675-0.5749 0.65134-0.8624 1.5311-0.8624 2.6394 0 1.1155 0.2771 1.9988 0.8313 2.6499 0.554 0.6512 1.3056 0.9767 2.2548 0.9767 0.6998 0 1.3233-0.1801 1.8705-0.5402 0.5377-0.3486 0.9521-0.8576 1.1846-1.4548v-3.2526z" fill="currentColor"></path><path d="m27.885 0.87305h2.8785l4.8943 8.8533 4.8942-8.8533h2.8162v14.548h-2.3483v-11.15l-4.2919 7.7207h-2.2029l-4.2915-7.7207v11.15h-2.3485l-1e-4 -14.548z" fill="currentColor"></path><path d="m6.6184 0.37817c-0.00741 0-0.01478 2.7e-5 -0.0222 6.5e-5l-0.03028 2.5018c0.00693-7e-5 0.01385-1.3e-4 0.02079-1.3e-4 1.6467 0 2.924 1.2984 5.7002 5.9746l0.1692 0.2847 0.0111 0.01863 1.5541-2.3318-0.0108-0.01801c-0.3657-0.59483-0.7171-1.1421-1.054-1.6419-0.3908-0.57903-0.7646-1.0963-1.1273-1.5581-1.8365-2.3384-3.3728-3.2299-5.2108-3.2299z" fill="currentColor"></path><path d="m6.5964 0.37823c-1.847 0.009502-3.4798 1.2038-4.6588 3.0314-0.00345 0.00536-0.0069 0.01071-0.01035 0.01607l2.1643 1.178c0.00352-0.00532 0.00705-0.01065 0.01058-0.01595 0.68849-1.0366 1.5453-1.6978 2.464-1.7076 0.00693-8e-5 0.01385-1.4e-4 0.02079-1.4e-4l0.03167-2.5017c-0.00742-8e-6 -0.01477 2e-5 -0.02217 5.8e-5z" fill="currentColor"></path><path d="m1.9376 3.4094c-0.00345 0.00536-0.0069 0.01072-0.01035 0.01608-0.77476 1.206-1.3523 2.686-1.6645 4.2826-0.001353 0.00691-0.002699 0.01383-0.004041 0.02075l2.4315 0.57371c0.00127-0.00693 0.00256-0.01388 0.00383-0.0208 0.2599-1.4032 0.75471-2.7045 1.3975-3.6783 0.00352-0.00532 0.00705-0.01066 0.01058-0.01596l-2.1645-1.1781z" fill="currentColor"></path><path d="m2.694 8.2819-2.4313-0.57365c-0.001352 0.00691-0.002699 0.01383-0.004041 0.02075-0.1702 0.87807-0.25679 1.7703-0.25861 2.6647v0.0217l2.4936 0.2231c-2e-4 -0.0073-4.1e-4 -0.0145-5.8e-4 -0.0217-0.00122-0.0519-0.00184-0.1045-0.00186-0.1578 0.00124-0.72327 0.06784-1.445 0.19898-2.1563 0.00124-0.00693 0.00252-0.01388 0.0038-0.02081z" fill="currentColor"></path><path d="m2.5695 11.416c-0.04473-0.257-0.07008-0.5171-0.07584-0.7779-2e-4 -0.0073-4e-4 -0.0145-5.8e-4 -0.0217l-2.493-0.2231v0.0217 0.0014c-0.0026345 0.5229 0.043106 1.0449 0.13664 1.5593 0.001305 7e-3 0.002587 0.0138 0.003911 0.0208l2.4326-0.5596c-0.00131-0.0069-0.00255-0.0139-0.0038-0.0209z" fill="currentColor"></path><path d="m3.1376 12.707c-0.27135-0.2962-0.4634-0.7234-0.56435-1.2698-0.00127-0.0069-0.00252-0.0138-0.00376-0.0208l-2.4328 0.5597c0.001305 0.0069 0.002587 0.0138 0.003911 0.0207 0.18388 0.9654 0.54451 1.77 1.0609 2.3787 0.00459 0.0054 0.0092 0.0109 0.01382 0.0162l1.9367-1.6691c-0.00484-0.0051-0.00969-0.0104-0.01449-0.0156z" fill="currentColor"></path><path d="m10.345 5.7866c-1.466 2.2486-2.3541 3.659-2.3541 3.659-1.9528 3.0612-2.6284 3.7473-3.7157 3.7473-0.45367 0-0.8327-0.1615-1.1231-0.4703-0.00484-0.0052-0.0097-0.0104-0.01449-0.0156l-1.936 1.6685c0.00459 0.0054 0.0092 0.0108 0.01383 0.0162 0.71307 0.8312 1.7196 1.2924 2.9648 1.2924 1.8839 0 3.2388-0.8881 5.6474-5.0985 0 0 1.004-1.7731 1.6948-2.9944-0.4279-0.69082-0.8173-1.2889-1.1775-1.8045z" fill="currentColor"></path><path d="m12.958 2.2376c-0.0049 0.00524-0.01 0.01061-0.0149 0.01587-0.3972 0.42945-0.7691 0.88161-1.1139 1.3542 0.3627 0.46184 0.7371 0.98012 1.128 1.5592 0.4606-0.71092 0.8905-1.2867 1.3119-1.728 5e-3 -0.00524 0.0099-0.01034 0.0149-0.01552l-1.326-1.1857z" fill="currentColor"></path><path d="m20.075 2.0171c-1.0224-1.0329-2.2414-1.6389-3.5446-1.6389-1.3742 0-2.5301 0.75306-3.5727 1.8594-0.0049 0.00524-0.0099 0.0106-0.0149 0.01586l1.3261 1.1853c0.0049-0.00524 0.0098-0.01034 0.0148-0.01552 0.6869-0.71441 1.3515-1.0711 2.0883-1.0711 0.7931 0 1.5355 0.37332 2.1785 1.0278 0.0051 0.00513 0.0101 0.01021 0.0151 0.01538l1.5246-1.3628c-0.0051-0.00514-0.0101-0.01024-0.0152-0.01537z" fill="currentColor"></path><path d="m23.031 10.064c-0.0573-3.3164-1.2178-6.2812-2.9405-8.032-5e-3 -0.00516-0.0101-0.01025-0.0152-0.01538l-1.5244 1.3628c5e-3 0.00513 0.01 0.01022 0.015 0.01538 1.2959 1.3312 2.1848 3.8071 2.2656 6.6685l6e-4 0.0216 2.1992 7e-4 -3e-4 -0.0216z" fill="currentColor"></path><path d="m23.031 10.086-3e-4 -0.0216-2.1994-7e-4 6e-4 0.0216c0.0036 0.1343 0.0054 0.2694 0.0053 0.4054 0 0.7801-0.1165 1.4107-0.3535 1.866-0.0035 0.0068-0.0071 0.0136-0.0106 0.0202l1.6398 1.7055c4e-3 -0.0062 8e-3 -0.0123 0.0121-0.0185 0.5953-0.9186 0.9078-2.1947 0.9078-3.7421 1e-4 -0.0788-5e-4 -0.1574-0.0018-0.2358z" fill="currentColor"></path><path d="m20.484 12.357c-0.0035 0.0068-0.0071 0.0136-0.0107 0.0202-0.2051 0.3838-0.4978 0.6398-0.8804 0.7517l0.7475 2.356c0.099-0.0337 0.1954-0.0714 0.2891-0.1133 0.028-0.0124 0.0558-0.0253 0.0834-0.0385 0.0158-0.0076 0.0316-0.0153 0.0474-0.0231 0.4985-0.2516 0.9277-0.6217 1.2499-1.0779 0.0206-0.0286 0.041-0.0574 0.061-0.0868 0.0142-0.0207 0.0281-0.0415 0.0419-0.0626 0.0041-0.0062 0.0081-0.0123 0.0121-0.0186l-1.6412-1.7071z" fill="currentColor"></path><path d="m19.117 13.193c-0.2364 0.0056-0.4712-0.0401-0.6883-0.1341l-0.7654 2.412c0.4302 0.147 0.8891 0.2133 1.4009 0.2133 0.4408 0.0041 0.8791-0.0657 1.2968-0.2066l-0.7474-2.3552c-0.161 0.0483-0.3284 0.0721-0.4966 0.0706z" fill="currentColor"></path><path d="m17.585 12.368c-0.0047-0.0054-0.0094-0.0109-0.0141-0.0164l-1.7613 1.8317c0.0049 0.0053 0.0098 0.0106 0.0148 0.0158 0.612 0.6522 1.1963 1.0568 1.8591 1.2788l0.7648-2.4102c-0.2793-0.12-0.5494-0.3374-0.8633-0.6997z" fill="currentColor"></path><path d="m17.571 12.352c-0.5283-0.6144-1.1818-1.6373-2.2098-3.2913l-1.3396-2.2342-0.0108-0.018-1.5544 2.3311 0.0111 0.01863 0.9492 1.5968c0.9201 1.5397 1.6697 2.6536 2.3931 3.4287 0.0049 0.0053 0.0098 0.0105 0.0148 0.0158l1.7606-1.8311c-0.0047-0.0054-0.0095-0.0109-0.0142-0.0164z" fill="currentColor"></path></svg>