<svg class="h-6 text-gray-400" role="img" viewBox="0 0 59 13" xmlns="http://www.w3.org/2000/svg"><title>Uber</title><path fill="currentColor" d="M53.46 5.611h-4.157V2.008h4.157c.757 0 1.265.15 1.524.45.26.301.38.751.364 1.352.016.608-.105 1.06-.364 1.357-.259.296-.767.444-1.524.444zm4.664 6.181l-2.678-4.578a3.115 3.115 0 0 0 1.703-1.017c.452-.523.687-1.335.704-2.437-.017-1.415-.44-2.385-1.271-2.912C55.75.323 54.588.071 53.09.096h-5.095c-.41 0-.707.065-.888.197-.18.132-.272.341-.272.63v10.795c0 .19.1.284.297.284h2.171v-3.48c-.008-.362.105-.629.339-.801.235-.173.619-.26 1.154-.26h2.208l2.406 4.343a.368.368 0 0 0 .124.148.377.377 0 0 0 .21.05h2.27c.073-.008.117-.035.129-.08a.16.16 0 0 0-.018-.13zm-34.718-1.677h-4.417v-2.21c-.008-.362.105-.629.34-.801.233-.173.619-.26 1.153-.26h2.923c.691 0 1.166.136 1.426.408s.38.682.363 1.233c.017.543-.104.95-.363 1.222s-.735.407-1.426.407zm-4.417-8.132h3.96c.642 0 1.084.125 1.327.376.242.251.36.635.35 1.154.01.518-.108.904-.35 1.16-.243.255-.685.382-1.327.382h-3.96V1.984zm6.76 3.738c.486-.255.838-.608 1.056-1.061a3.52 3.52 0 0 0 .327-1.542C27.09 1.836 26.64 1 25.78.614c-.859-.386-1.864-.56-3.016-.518h-5.07c-.42 0-.72.065-.9.197-.182.132-.269.341-.26.63v10.375c0 .24.067.416.203.53.135.116.364.174.685.174h6.242c1.202.008 2.167-.245 2.9-.76.732-.513 1.11-1.358 1.135-2.534 0-.725-.158-1.355-.475-1.894-.317-.54-.808-.903-1.474-1.092zm15.818-3.688a.377.377 0 0 0 .209-.05.372.372 0 0 0 .124-.148L42.54.23c.033-.09 0-.136-.098-.136H33.46c-.41 0-.707.066-.888.197-.182.132-.272.342-.272.63v10.376c0 .239.068.415.203.53.136.115.365.173.685.173h8.378a.377.377 0 0 0 .209-.05.37.37 0 0 0 .124-.147l.641-1.592c.033-.099 0-.148-.098-.148h-7.65v-2.11c-.008-.362.103-.629.334-.802s.612-.259 1.147-.259h3.319a.377.377 0 0 0 .21-.05.372.372 0 0 0 .122-.147l.617-1.53c.034-.099 0-.148-.098-.148h-5.65V2.033h6.773zM9.217.379v6.688c.008 1.11-.253 1.916-.783 2.418-.53.501-1.37.753-2.517.753-1.148 0-1.987-.252-2.517-.753-.53-.502-.792-1.308-.784-2.418V.096H.384C.186.088.086.182.086.379v6.8c.026 1.842.564 3.147 1.617 3.916 1.052.77 2.455 1.142 4.207 1.117 1.752.025 3.156-.347 4.213-1.116 1.057-.77 1.599-2.075 1.623-3.917V.095H9.513c-.198-.008-.296.086-.296.284z"></path></svg>