<svg class="h-8" role="img" aria-label="ResumeCat logo" xmlns="http://www.w3.org/2000/svg" viewBox="0 0 1200 281.8"><path d="M16.7 216.6C-9.8 170.5 21.5 113 83 113.7c4 .1 8 .6 12 .8 2.3.1 4.8.5 6.9-.2s4.8-2.7 4.6-4a7.3 7.3 0 00-3.9-5.3c-3.5-1.3-7.5-1.4-11.3-2-8.7-1.5-16.8-4.5-22.4-11.7a34.4 34.4 0 01-5.5-11c-.5-1.9.8-5.2 2.3-6.4 3.8-3 4.8-6.7 5.6-11.1 1.4-7.3 2.7-14.9 5.9-21.4 5-10.1 14.1-15.7 25.3-17.5l4.8-1q-1.7-7.7-3.3-15c-1.8-7.8-.5-9.1 7.3-7 11.6 3.2 21.1 9.6 29.7 17.8 39.3 37.1 62.6 105.8 28.5 171.3-3.4 6.6-7 13.1-10.6 19.9 4.3.3 8.8.2 13 1a19.8 19.8 0 018.4 4c6.2 5.2 5.2 11.3-2 14.8-10.9 5.1-22.6 7.3-34.4 7.8-23 1-45.9 1.5-68.9 1.6-15.4.1-29.9-4.8-44.3-9.5-6.3-2.1-8.3-1.6-11.3 3.7s-2.5 11 1.8 14a31.2 31.2 0 0010.8 4.6c14.6 2.9 28.9.3 43.1-2.5 19.4-3.8 38.8-4.6 58.1-.3a41.3 41.3 0 0116 8.2c5.2 4.2 6.4 10.5 3.6 16.9s-8 7.9-13.9 7.6-9.8-.6-14.2-2.3c-21.6-8.1-43.6-9.8-66.4-7.2a81.6 81.6 0 01-38.8-4.6C6.3 262.8-.5 253.3 0 241.1c.5-9.5 4.9-16.8 12.8-22zM94.9 66.3c-2.5-2-4.7-4.4-5.3-4a10 10 0 00-4.3 5c-.3.7 2.7 3.7 3.9 3.5s3.2-2.3 5.7-4.5z" fill="#805ad5"></path><path d="M372.2 205.5c0 .5-.7.8-2 1s-8.7.6-18.7.6a159.8 159.8 0 01-17.3-.6l-2.5-.5c-.4-.2-.8-.8-1.3-1.9-1-2.6-2.5-6.4-4.3-11.4s-6.6-16.1-12-28.8q-1.7-3.7-8.1-4.2c2 .2-1.4.2-10 .2-1 0-1.5 1.7-1.5 5s.4 11 1.2 19.8 1.3 15.4 1.3 19.8c0 1.2-.3 1.8-.9 2l-2.8.2c-3.8.3-9.8.4-17.9.4s-14.9-.2-16.8-.6-2.9-1.4-2.9-3c0-7.2.4-18 1.1-32.4s1-25.3 1-32.6q0-41.2-1.9-64.4v-1.4c0-1.1 1-1.8 3.1-2.2s12.1-.8 29.9-1.2c12-.3 21.6-.4 28.8-.4 14.8 0 26.9 3.4 36.3 10.1s15.9 18.4 15.9 32.7c0 9.5-1.4 17.1-4.1 22.7s-7.8 11.2-15.1 16.5c-1.5 1.1-2.3 2.1-2.3 3s4 8.1 11.9 24.5 11.9 25.4 11.9 27.1zm-41.1-87.6q0-11.8-7.8-16.5c-4-2.3-10.3-3.5-18.9-3.5-6.2 0-9.5 1-9.9 2.8s-.6 8.6-.6 19.2c0 1.5.1 3.7.1 6.6s.1 5.1.1 6.6 1.1.6 3.2.9a82.6 82.6 0 0012.5.9c14.2 0 21.3-5.6 21.3-17zM465.4 153.5c0 6.6-2.2 10.3-6.4 11.2l-20.2 2.2c-7.7.8-19.1 1.8-34.4 3 .9 4.2 3.7 7.4 8.3 9.6a28.4 28.4 0 0012.9 2.8 37.4 37.4 0 0017.5-4.7l7.4-4.7c1.4.7 3.7 4 6.9 10s4.8 9.8 4.8 11.4-.5 1.2-1.4 2.2c-8 8.6-20.3 12.8-37 12.8s-28-4.5-37.5-13.5-14.7-21.5-14.7-36.9 4.4-27.2 13.1-36.8 20.9-14.8 35.7-14.8a42.4 42.4 0 0131.9 13.7 45.4 45.4 0 0113.1 32.5zm-34.2-6a15.2 15.2 0 00-4.3-10.6 13.5 13.5 0 00-10.3-4.6 12 12 0 00-10.1 5.2 17.4 17.4 0 00-3.7 11.2c0 1.7.9 2.6 2.7 2.6 4.8 0 12.3-.7 22.5-2.2 2.1-.3 3.2-.9 3.2-1.6zM526.6 127.5a5.1 5.1 0 01-1.4 2.6 26.4 26.4 0 00-5.5-.6 17.5 17.5 0 00-9.7 2.5 9.2 9.2 0 00-4.7 8.3c0 2.3 1.7 5.2 5 8.7 5 5.3 8.1 8.8 9.3 10.6a28.4 28.4 0 015 15.9 31.9 31.9 0 01-2 10.6c-1.5 4.1-3.4 7.1-5.6 9a69.9 69.9 0 01-16.9 10.5c-7 3-13.4 4.5-19.3 4.5-1.3 0-4.2-3.5-8.7-10.6s-6.8-11.4-6.8-12.9.4-1 1.1-1.1l13.7-2.5c5.8-1.9 8.6-4.9 8.6-9s-1.6-6.2-4.9-10c-6-6.6-9.1-10-9.3-10.4a25.6 25.6 0 01-5-14.9c0-9.7 4.9-18 14.8-24.9a50.2 50.2 0 0128.5-9.1c1 0 3.6 3.5 7.7 10.5s6.1 11.1 6.1 12.3zM634.6 117.7c0 4.9-.2 12.1-.7 21.7s-.7 16.9-.7 21.7.2 11.7.5 21.1.5 16.4.5 21a3.1 3.1 0 01-2.5 3.3c-2.4.7-7.7 1-15.7 1a121.6 121.6 0 01-14.8-.6 2.9 2.9 0 01-2.4-2.4l-.5-5.8c-.4-3-.8-4.5-1.4-4.5q1.4 0-9.9 6.6c-7.5 4.5-14.3 6.7-20.4 6.7-17.2 0-27.5-7.8-30.7-23.4-1.4-7.2-2.1-17.7-2.1-31.4s1.2-26.6 3.6-35.2c.7-2.6 2.1-4 4-4h27.4c2 0 3 .9 3 2.6s-.1 1.1-.2 2a173.5 173.5 0 00-2.1 27c0 11.3.4 19 1.1 23.2 1.2 7.2 5.5 10.8 12.8 10.8q4.4 0 9.3-3.9c3.4-2.5 5.1-5.1 5.3-7.9s.2-18.7.2-49c0-2.1.1-3.4.4-3.8s1.6-1 3.6-1H631c1.9 0 3.1.5 3.4 1.5a12.1 12.1 0 01.2 2.7zM800.1 202.9c0 2.3-.9 3.5-2.9 3.8s-6.8.4-14.4.4-12.9-.2-14.9-.6-2.9-2-2.9-4.8.1-7.5.3-13.4.3-10.4.3-13.4c0-11.4-.2-19.5-.4-24.4-.4-7.7-4.1-11.6-11-11.6-3.1 0-6.2 1.3-9.2 3.9s-4.7 5.4-5 8.5-.4 10.8-.4 24c0 3.1.1 7.7.3 14s.3 10.9.3 14-1 3.2-2.8 3.2h-29.6c-1.9 0-2.8-1.3-2.8-4s.1-7.7.3-13.8.3-10.7.3-13.8 0-6.1-.2-11-.2-8.5-.2-11c0-9.3-3.5-14-10.6-14q-4.4 0-9.3 3.3c-3.6 2.5-5.5 5-5.5 7.7 0 5.9.1 14.7.1 26.5s.1 20.6.1 26.5q0 2.4-.6 3c-.3.4-1.4.7-3 .8s-7.5.4-13.8.4c-4.2 0-8.8-.2-14-.6a5 5 0 01-2.8-.7c-.3-.3-.4-1.3-.4-2.9 0-5.2 0-13 .1-23.4s.1-18.2.1-23.4a304.1 304.1 0 00-2.4-36c-.1-.8-.2-1.4-.2-1.8a2.2 2.2 0 011.4-2.2q2.1-.9 8.1-1.5t8.7-.9l7.7-2a30.8 30.8 0 017.7-1.4c1.2 0 1.9 2.3 2 6.8s.3 6.8.7 6.8a10.1 10.1 0 002.3-1.4c5.9-4.5 10.5-7.7 13.9-9.4a37.1 37.1 0 0116.3-3.6 32.5 32.5 0 0116 4 20.5 20.5 0 0110.2 12.6 41.2 41.2 0 0114.3-11.8 37.7 37.7 0 0117.7-4.8q12.9 0 21 6c6.1 4.5 9.1 10.9 9.1 19.2 0 3.5 0 8.7-.2 15.6s-.3 12.1-.3 15.6.1 10.2.3 18.5.2 14.4.2 18.5zM901.6 153.5c0 6.6-2.2 10.3-6.4 11.2l-20.2 2.2c-7.7.8-19.1 1.8-34.4 3 .9 4.2 3.7 7.4 8.3 9.6a28.4 28.4 0 0012.9 2.8 37.4 37.4 0 0017.5-4.7l7.4-4.7c1.4.7 3.7 4 6.9 10s4.8 9.8 4.8 11.4-.5 1.2-1.4 2.2c-8 8.6-20.3 12.8-37 12.8s-28-4.5-37.5-13.5-14.7-21.5-14.7-36.9 4.4-27.2 13.1-36.8 20.9-14.8 35.7-14.8a42.4 42.4 0 0131.9 13.7 45.4 45.4 0 0113.1 32.5zm-34.2-6a15.2 15.2 0 00-4.3-10.6 13.5 13.5 0 00-10.3-4.6 12 12 0 00-10.1 5.2 17.4 17.4 0 00-3.7 11.2c0 1.7.9 2.6 2.7 2.6 4.8 0 12.3-.7 22.5-2.2 2.1-.3 3.2-.9 3.2-1.6z" fill="#2a4365"></path><path d="M1020.4 184.4c0 1.1-.6 2.4-2 4.1q-18 21.4-47.8 21.4c-20.3 0-36.7-6.9-49.4-20.8s-18.4-30.3-18.4-50.8 6-36.6 18-50.4 28.6-21.6 48-21.6c21.1 0 37.6 6.4 49.6 19.4a5.9 5.9 0 011.9 3.8c0 1.2-2.2 5.8-6.7 13.8s-7.4 12.4-8.6 13.4a2.6 2.6 0 01-1.9.7c-.4 0-2-1.3-4.9-3.9a53.5 53.5 0 00-10.4-7.3 35 35 0 00-16-3.9c-9.6 0-17.2 3.6-22.9 10.7s-7.9 14.9-7.9 24.7 2.6 18.2 7.9 24.9 13.3 10.9 22.9 10.9a35.9 35.9 0 0016.1-3.7 48.3 48.3 0 0010.2-6.9c2.8-2.4 4.4-3.7 4.8-3.7a2.7 2.7 0 011.9 1.1c1.1 1.2 3.9 5.3 8.5 12.2s7.1 11.2 7.1 11.9z" fill="#805ad5"></path><path d="M1121.9 157.7c0 5 .2 12.4.8 22.3s.9 17.4.9 22.3c0 2.6-1.1 4-3.4 4.2-8.1.6-17.3.9-27.7.9-1.3 0-2.1-1.9-2.5-5.6s-1-5.7-1.5-5.7a6.5 6.5 0 00-2.1 1.6c-7.3 7.4-15.1 11-23.4 11-12.7 0-23.2-5-31.6-15s-11.8-20.6-11.8-33.6c0-15 4.1-27.1 12.2-36.3s20.1-14.3 34.8-14.3c10.2 0 18.3 3.6 24.2 10.8.3.3.5.5.7.5s1.2-1.6 2-4.8 1.6-4.7 2.7-4.7 7 .7 13.7 2a112 112 0 0113.9 3.4c1 .3 1.5.9 1.5 1.5a16.2 16.2 0 01-.3 2.1 212.9 212.9 0 00-3.1 37.4zm-31.5.6a19.1 19.1 0 00-5.2-13.8c-3.5-3.6-8-5.4-13.6-5.4s-10.2 1.8-13.6 5.4-5.2 8.2-5.2 13.8a18.5 18.5 0 005.5 13.5 17.7 17.7 0 0013.3 5.7 18 18 0 0013.5-5.4 19 19 0 005.3-13.8zM1200 177.9a77.1 77.1 0 01-.7 8.9 74.4 74.4 0 00-.7 8.7q0 2.9-.6 3.6a13.5 13.5 0 01-3.3 2.2 57.2 57.2 0 01-27.9 7q-28.2 0-28.2-21.6c0-4.3.2-10.8.5-19.4s.5-15.1.5-19.4-1.7-4.3-5-4.3h-2.6c-2.4 0-3.7-.9-3.7-2.6s.1-2.7.3-4.8.2-3.8.2-4.8-.1-3.4-.2-6.2-.3-4.9-.3-6.3 2.1-2 6.3-2.1c2.3-.1 3.6-.8 3.8-2a74.4 74.4 0 00.4-11.7c-.3-8.4-.4-12.4-.4-12q0-11.4 2.1-11.4a34.7 34.7 0 017.6 1.2 73.3 73.3 0 007.7 1.5c3.3.4 8.3 1.1 15 1.8 1.6.2 2.5.7 2.5 1.7 0 2.6-.3 6.5-.7 11.8s-.6 9.3-.6 11.9.9 4.8 2.8 4.8l10.4-.3 10.4-.3c1.5 0 2.2.5 2.2 1.5s-.2 3.7-.5 6.7-.5 5.3-.5 6.8 0 3.8.1 6.8.1 5.3.1 6.8-1 2.1-2.8 2.1l-6.6-.2h-13.9c-.9 0-1.4 1.4-1.4 4.3v6.9c0 3.1.1 5.5.1 7 0 5.4.6 9.2 1.8 11.3s5.2 4.2 10.4 4.2a35.5 35.5 0 007-1.1 28.7 28.7 0 016.4-1.2c1.3 0 2 .8 2 2.2z" fill="#805ad5"></path></svg>